<?xml version="1.0" standalone="no"?>
<!DOCTYPE svg PUBLIC "-//W3C//DTD SVG 20010904//EN"
 "http://www.w3.org/TR/2001/REC-SVG-20010904/DTD/svg10.dtd">
<svg version="1.0" xmlns="http://www.w3.org/2000/svg"
 width="2000.000000pt" height="1252.000000pt" viewBox="0 0 2000.000000 1252.000000"
 preserveAspectRatio="xMidYMid meet">

<g transform="translate(0.000000,1252.000000) scale(0.100000,-0.100000)"
fill="#000000" stroke="none">
<path d="M14092 12413 c-80 -175 -149 -432 -261 -978 -137 -673 -209 -1136
-276 -1795 -79 -777 -100 -1304 -91 -2205 8 -726 14 -886 33 -844 72 164 295
733 448 1144 l93 250 17 275 c41 699 91 1152 190 1725 97 560 290 1417 450
1994 30 109 55 208 55 220 0 63 -86 146 -221 213 -133 65 -214 88 -314 88
l-82 0 -41 -87z"/>
<path d="M13174 11727 c-21 -25 -84 -146 -84 -162 0 -2 21 6 47 17 40 18 54
19 88 10 22 -6 41 -10 41 -9 5 5 -17 115 -27 139 -16 39 -35 41 -65 5z"/>
<path d="M13270 11475 c0 -86 1 -88 16 -66 26 37 28 101 5 131 l-21 25 0 -90z"/>
<path d="M13038 11516 c-50 -48 -67 -92 -141 -351 -369 -1293 -1071 -3234
-1787 -4940 -67 -159 -124 -295 -127 -301 -2 -7 58 14 134 45 76 32 203 82
283 110 80 29 150 58 157 64 14 14 176 499 262 782 173 576 347 1220 737 2730
324 1253 388 1487 483 1769 23 66 39 121 38 123 -2 2 -20 -12 -39 -31z"/>
<path d="M9020 9818 c-94 -242 -227 -931 -289 -1493 -75 -673 -88 -1431 -36
-2114 9 -112 14 -205 13 -207 -2 -1 -35 1 -73 6 -158 20 -531 32 -827 27 -170
-3 -308 -4 -308 -2 0 2 23 65 50 141 141 383 278 867 605 2134 158 610 213
814 260 949 25 74 26 89 6 76 -21 -13 -43 -68 -92 -238 -232 -797 -667 -1989
-1086 -2977 l-49 -115 -49 -7 c-28 -4 -131 -16 -230 -28 -792 -93 -1577 -279
-2180 -517 -567 -224 -942 -455 -1260 -777 -154 -156 -236 -268 -315 -431
-104 -214 -148 -391 -157 -635 -9 -234 18 -391 94 -549 80 -168 215 -272 466
-360 183 -64 264 -75 552 -76 285 0 376 10 605 65 184 45 319 92 465 163 463
226 821 544 1224 1086 236 317 425 639 680 1156 97 197 291 620 314 686 8 24
54 28 387 35 259 5 319 3 495 -15 219 -24 446 -58 457 -69 3 -4 14 -59 23
-122 105 -733 375 -1540 653 -1950 82 -120 125 -174 228 -280 80 -83 82 -87
108 -178 30 -108 57 -165 118 -247 100 -135 309 -243 595 -308 87 -19 127 -22
363 -22 289 0 366 8 603 66 205 50 315 89 487 175 341 171 628 393 889 689
256 290 483 606 676 940 164 284 424 808 575 1157 l63 146 46 6 c25 3 177 9
336 12 310 6 504 -7 822 -57 l131 -21 12 -87 c82 -599 276 -1264 502 -1720
191 -386 454 -674 781 -858 56 -31 113 -65 126 -75 13 -10 35 -18 48 -18 33 0
73 42 73 77 0 37 -24 116 -33 107 -8 -8 -123 59 -232 135 -149 104 -235 204
-375 436 -244 405 -396 821 -514 1405 -30 148 -86 498 -86 537 0 18 383 -88
500 -138 153 -66 256 -144 287 -217 9 -20 19 -85 23 -144 10 -122 29 -175 68
-185 54 -13 89 36 104 149 33 244 -72 453 -288 574 -154 86 -374 166 -610 222
l-119 28 -9 105 c-4 57 -9 329 -10 604 -2 1014 70 1622 309 2600 29 121 67
269 84 329 17 60 31 120 31 132 0 61 -187 164 -299 164 l-61 0 -24 -48 c-47
-93 -103 -315 -185 -732 -179 -913 -231 -2007 -145 -3044 l7 -78 -29 6 c-105
21 -332 31 -737 31 -246 0 -447 1 -447 2 0 1 15 41 34 90 129 338 298 932 620
2174 148 570 250 942 281 1022 12 30 -12 19 -33 -15 -11 -18 -52 -143 -92
-277 -220 -750 -630 -1871 -1051 -2878 l-64 -152 -65 -6 c-565 -56 -1288 -190
-1760 -326 -397 -115 -790 -267 -1100 -425 -531 -270 -922 -622 -1112 -997
-72 -145 -133 -357 -145 -512 -3 -38 -9 -76 -12 -82 -7 -13 -98 134 -180 287
-165 310 -309 753 -405 1245 -31 159 -76 449 -76 489 0 16 29 9 310 -70 161
-46 349 -136 414 -199 62 -60 74 -93 86 -229 9 -116 25 -168 55 -180 76 -29
117 52 118 229 1 169 -43 278 -157 390 -123 121 -367 230 -711 315 l-150 37
-6 74 c-4 41 -10 277 -14 524 -6 399 -5 490 14 805 24 391 39 555 77 825 52
373 170 927 288 1357 25 91 46 174 46 184 0 32 -83 99 -163 132 -58 25 -90 32
-141 32 l-65 0 -31 -82z m-1930 -4042 c0 -11 -153 -332 -266 -558 -337 -673
-533 -992 -831 -1350 -506 -608 -1117 -924 -1823 -945 -278 -8 -435 20 -627
112 -114 54 -179 113 -226 203 -52 101 -62 155 -61 332 4 414 135 721 439
1025 307 308 673 524 1250 740 518 193 1210 350 1850 419 77 9 154 17 170 19
45 6 125 8 125 3z m6710 -2 c0 -12 -121 -266 -253 -529 -333 -668 -517 -972
-796 -1320 -521 -648 -1146 -983 -1876 -1002 -223 -6 -343 8 -495 60 -79 27
-94 36 -92 52 5 26 -20 135 -30 129 -11 -7 -58 19 -169 92 -53 35 -99 70 -102
78 -21 53 -28 196 -18 329 29 377 157 652 431 927 293 294 612 490 1139 700
395 157 842 280 1358 374 383 70 903 133 903 110z"/>
<path d="M5514 4292 c-280 -169 -578 -395 -818 -620 -81 -76 -72 -77 83 -10
207 91 403 228 581 407 97 98 249 271 238 271 -2 0 -39 -22 -84 -48z"/>
<path d="M8497 9452 c-9 -10 -23 -35 -32 -56 -16 -37 -16 -38 2 -30 10 4 33 8
51 8 36 -1 40 11 21 65 -13 36 -20 38 -42 13z"/>
<path d="M15212 9458 c-5 -7 -20 -33 -32 -57 -20 -40 -20 -43 -3 -35 10 4 33
8 51 8 27 0 32 3 32 22 0 30 -17 74 -29 74 -4 0 -13 -6 -19 -12z"/>
<path d="M8550 9305 c0 -25 2 -45 5 -45 11 0 25 53 20 71 -11 34 -25 20 -25
-26z"/>
<path d="M15271 9310 c0 -40 2 -42 11 -22 8 16 8 28 0 45 -9 19 -11 17 -11
-23z"/>
<path d="M10605 5783 c-16 -2 -45 -6 -63 -9 l-32 -5 16 -32 c9 -18 18 -33 19
-35 2 -2 41 17 86 42 83 45 84 46 44 44 -22 0 -53 -3 -70 -5z"/>
<path d="M7805 5199 c-4 -13 -41 -93 -81 -177 -53 -110 -68 -152 -56 -148 85
27 217 65 372 107 102 27 192 52 201 55 15 4 15 11 0 81 -21 95 -13 92 -252
100 l-177 6 -7 -24z"/>
<path d="M14521 5201 c-14 -25 -29 -18 149 -70 74 -22 173 -53 218 -70 50 -18
82 -25 79 -18 -2 7 -10 44 -17 84 -15 86 1 80 -246 89 -169 7 -172 7 -183 -15z"/>
<path d="M14135 4427 c-44 -83 -122 -222 -173 -308 l-93 -157 31 -113 c189
-687 457 -1378 695 -1795 334 -584 757 -1006 1290 -1290 61 -32 112 -62 113
-66 8 -18 83 -48 121 -48 71 0 128 70 118 147 -9 76 -40 174 -50 164 -13 -13
-117 42 -262 136 -382 250 -523 405 -803 875 -414 696 -664 1388 -863 2393
-22 110 -41 203 -42 207 -1 3 -38 -62 -82 -145z"/>
<path d="M9235 2613 c-39 -54 -121 -163 -184 -243 -544 -692 -1023 -1101
-1668 -1423 -360 -180 -699 -290 -1103 -356 -244 -40 -330 -46 -635 -46 -321
0 -377 6 -600 62 -198 49 -424 148 -544 239 -238 179 -330 460 -302 922 6 108
14 206 17 218 5 20 2 21 -167 28 -95 4 -192 9 -214 13 -38 5 -43 3 -48 -18
-16 -63 -29 -348 -23 -494 25 -632 225 -1005 654 -1219 182 -91 421 -174 617
-215 219 -45 337 -55 625 -55 424 0 684 32 1114 140 331 83 501 146 796 295
741 374 1318 886 1975 1753 l97 129 -43 35 c-76 60 -192 186 -242 260 -27 40
-49 72 -50 72 -2 0 -34 -44 -72 -97z"/>
</g>
</svg>
